<?xml version="1.0" encoding="UTF-8" standalone="no"?>
<!-- Created with Inkscape (http://www.inkscape.org/) -->

<svg
   width="124.19354mm"
   height="68.421524mm"
   viewBox="0 0 124.19353 68.421524"
   version="1.1"
   id="svg1"
   xml:space="preserve"
   inkscape:version="1.2.2 (b0a84865, 2022-12-01)"
   sodipodi:docname="favicon.svg"
   xmlns:inkscape="http://www.inkscape.org/namespaces/inkscape"
   xmlns:sodipodi="http://sodipodi.sourceforge.net/DTD/sodipodi-0.dtd"
   xmlns:xlink="http://www.w3.org/1999/xlink"
   xmlns="http://www.w3.org/2000/svg"
   xmlns:svg="http://www.w3.org/2000/svg"><sodipodi:namedview
     id="namedview1"
     pagecolor="#ffffff"
     bordercolor="#000000"
     borderopacity="0.25"
     inkscape:showpageshadow="2"
     inkscape:pageopacity="0.0"
     inkscape:pagecheckerboard="0"
     inkscape:deskcolor="#d1d1d1"
     inkscape:document-units="mm"
     inkscape:zoom="1.7677007"
     inkscape:cx="379.87199"
     inkscape:cy="240.14246"
     inkscape:window-width="2048"
     inkscape:window-height="1099"
     inkscape:window-x="1440"
     inkscape:window-y="25"
     inkscape:window-maximized="0"
     inkscape:current-layer="layer2"
     showgrid="false"
     inkscape:export-bgcolor="#ffffff00" /><defs
     id="defs1"><linearGradient
       inkscape:collect="always"
       id="linearGradient1702"><stop
         style="stop-color:#22aee8;stop-opacity:1;"
         offset="0.38211381"
         id="stop1698" /><stop
         style="stop-color:#e82222;stop-opacity:1;"
         offset="0.65040648"
         id="stop1700" /></linearGradient><inkscape:path-effect
       effect="bspline"
       id="path-effect242-4-0-0"
       is_visible="true"
       lpeversion="1"
       weight="33.333333"
       steps="2"
       helper_size="0"
       apply_no_weight="true"
       apply_with_weight="true"
       only_selected="false"
       uniform="false" /><linearGradient
       inkscape:collect="always"
       xlink:href="#linearGradient1702"
       id="linearGradient1708"
       x1="48.448135"
       y1="240.29175"
       x2="172.64168"
       y2="240.29175"
       gradientUnits="userSpaceOnUse" /></defs><g
     inkscape:groupmode="layer"
     id="layer2"
     inkscape:label="Layer 2"
     transform="translate(-48.448134,-206.08098)"><path
       style="fill:none;fill-opacity:0.774468;stroke:url(#linearGradient1708);stroke-width:5.8;stroke-linecap:round;stroke-linejoin:round;stroke-miterlimit:3.2;stroke-dasharray:none;stroke-opacity:1;paint-order:stroke fill markers;stop-color:#000000"
       d="m 51.348134,240.39969 c 10.325864,0.31341 20.651463,0.62681 26.681186,-3.24066 6.029723,-3.86746 7.763701,-11.91517 8.911262,-17.51347 1.147561,-5.5983 1.708664,-8.74692 2.306322,-10.03214 0.597658,-1.28522 1.231866,-0.70733 1.703879,2.14675 0.472013,2.85408 0.781837,7.98438 1.191606,15.95775 0.409769,7.97337 0.919454,18.78927 1.372905,26.85703 0.45345,8.06776 0.850646,13.38693 1.524424,15.73511 0.673778,2.34818 1.623748,1.72527 2.857161,-3.63776 1.233413,-5.36303 2.750441,-15.46568 5.043991,-20.47037 2.29356,-5.00469 5.36327,-4.91152 7.37468,-9.83204 2.01142,-4.92053 2.96467,-14.85407 3.86003,-19.8081 0.89537,-4.95403 1.73256,-4.92863 2.22244,5.00243 0.48987,9.93105 0.63267,29.76723 1.26235,39.70259 0.62969,9.93536 1.74594,9.96924 2.9709,4.88517 1.22496,-5.08407 2.55876,-15.28538 4.71279,-20.2943 2.15402,-5.00892 5.12788,-4.82555 6.85591,-8.07868 1.72803,-3.25314 2.21037,-9.94222 2.91822,-13.31909 0.70784,-3.37688 1.6409,-3.44167 2.01537,2.62179 0.37448,6.06347 0.19066,18.25494 0.70069,24.46232 0.51004,6.20739 1.71368,6.43014 2.54106,3.70832 0.82739,-2.72182 1.27868,-8.38767 6.11061,-11.12726 4.83193,-2.73958 14.04389,-2.55309 23.25576,-2.3666"
       id="path240-6-2"
       inkscape:original-d="m 51.348134,240.39969 c 10.325872,0.31314 20.651471,0.62654 30.976798,0.9402 1.734319,-8.04828 3.468295,-16.09599 5.202034,-24.14359 0.561398,-3.149 1.122499,-6.29762 1.68334,-9.44604 0.634508,0.57766 1.268719,1.15555 1.902668,1.73372 0.310109,5.13025 0.619934,10.26055 0.92949,15.39121 0.509977,10.81609 1.019663,21.63199 1.529086,32.44838 0.397486,5.31912 0.794682,10.63829 1.191612,15.95782 0.9503,-0.6232 1.900271,-1.24611 2.850001,-1.86879 1.51736,-10.1033 3.034387,-20.20595 4.551167,-30.30854 3.07011,0.0929 6.13982,0.18609 9.20932,0.27952 0.95356,-9.9342 1.90681,-19.86774 2.85981,-29.80123 0.8375,0.0251 1.67469,0.0506 2.51163,0.0762 0.14308,19.83672 0.28588,39.6729 0.4284,59.50973 1.11658,0.0336 2.23283,0.0675 3.34884,0.10164 1.33414,-10.20198 2.66795,-20.40329 4.0015,-30.60455 2.97427,0.18311 5.94813,0.36649 8.92178,0.55012 0.48264,-6.68961 0.96499,-13.37869 1.44707,-20.06765 0.93334,-0.065 1.86639,-0.12984 2.79918,-0.19437 -0.18356,12.1917 -0.36737,24.38317 -0.55147,36.57514 1.20395,0.2225 2.40759,0.44525 3.61098,0.66826 0.45158,-5.66633 0.90286,-11.33218 1.35389,-16.99788 9.2126,0.18625 18.42456,0.37274 27.63642,0.55949"
       inkscape:path-effect="#path-effect242-4-0-0"
       inkscape:export-filename="../sciebo/Scripts/Phd_py/Git/EPRpy/untracked/logo/eprpy_logo.png"
       inkscape:export-xdpi="300"
       inkscape:export-ydpi="300" /></g></svg>
